# xmcd CD database file
#
# Track frame offsets:
#	150
#	14685
#	31090
#	46977
#	58767
#	73272
#	88940
#	103792
#	116647
#	131005
#	145540
#	159217
#	171305
#
# Disc length: 2500 seconds
#
# Revision: 2
# Processed by: cddbd v1.5.1PL0 Copyright (c) Steve Scherf et al.
# Submitted via: CDex 1.51
#
DISCID=b509c20d
DTITLE=DOVER - Late At Night
DYEAR=1999
DGENRE=Hard Rock
TTITLE0=DJ
TTITLE1=Four Graves
TTITLE2=Cherry Lee
TTITLE3=Me And My Moulon
TTITLE4=Free Kitten
TTITLE5=Downtown
TTITLE6=Flashback
TTITLE7=Straight To Jail
TTITLE8=Sea Witch
TTITLE9=Far
TTITLE10=The Real Me
TTITLE11=The Hitter
TTITLE12=Late At Night
EXTD=YEAR: 1999
EXTT0=
EXTT1=
EXTT2=
EXTT3=
EXTT4=
EXTT5=
EXTT6=
EXTT7=
EXTT8=
EXTT9=
EXTT10=
EXTT11=
EXTT12=
PLAYORDER=
